<?xml version="1.0" standalone="no"?>
<!DOCTYPE svg PUBLIC "-//W3C//DTD SVG 20010904//EN"
 "http://www.w3.org/TR/2001/REC-SVG-20010904/DTD/svg10.dtd">
<svg version="1.0" xmlns="http://www.w3.org/2000/svg"
 width="512.000000pt" height="512.000000pt" viewBox="0 0 512.000000 512.000000"
 preserveAspectRatio="xMidYMid meet">
<metadata>
Created by potrace 1.14, written by Peter Selinger 2001-2017
</metadata>
<g transform="translate(0.000000,512.000000) scale(0.100000,-0.100000)"
fill="#000000" stroke="none">
<path d="M2339 4286 c-2 -2 -42 -7 -89 -10 -547 -43 -1079 -250 -1484 -576
-316 -255 -579 -608 -719 -965 -55 -143 -56 -139 6 -155 28 -7 122 -33 207
-57 85 -24 178 -51 206 -58 56 -15 738 -209 794 -225 19 -6 126 -37 236 -68
l202 -57 -89 -59 c-49 -32 -89 -62 -89 -65 0 -4 35 -58 77 -121 l78 -115 100
0 100 0 45 -60 c41 -55 310 -421 422 -575 82 -112 173 -235 178 -240 3 -3 10
-14 16 -24 17 -32 29 -29 60 16 16 24 31 45 35 48 3 3 52 70 110 149 142 196
186 256 319 436 63 86 122 166 130 178 46 68 51 70 157 71 l98 1 81 119 81
120 -93 60 -93 61 157 45 c86 24 162 45 167 46 13 3 218 61 275 79 25 7 81 23
125 35 44 12 107 29 140 39 33 10 89 26 125 36 36 9 72 20 80 23 8 3 20 6 25
8 6 1 75 21 155 44 165 47 163 46 210 59 153 41 226 65 232 74 16 25 -99 287
-199 455 -59 98 -185 272 -251 345 -101 111 -245 248 -322 307 -18 14 -42 33
-54 42 -31 26 -36 29 -101 73 -67 45 -64 44 -177 107 -271 152 -553 252 -883
312 -11 2 -58 8 -105 15 -47 6 -103 13 -125 17 -44 6 -550 15 -556 10z m472
-2255 c10 -13 19 -36 19 -51 0 -33 -179 -355 -216 -387 -32 -29 -66 -29 -98 0
-35 31 -216 357 -216 387 0 27 26 65 50 72 8 3 111 5 228 4 212 -1 214 -1 233
-25z"/>
</g>
</svg>
